<?xml version="1.0" encoding="UTF-8"?>
<svg id="Lager_1" data-name="Lager 1" xmlns="http://www.w3.org/2000/svg" viewBox="0 0 491.14 45.89">
  <defs>
    <style>
      .cls-1 {
        fill: #dab335;
      }

      .cls-2 {
        fill: #b3aa99;
      }
    </style>
  </defs>
  <path class="cls-1" d="m30.02,0c14.16,0,21.23,7.69,21.23,23.07s-6.81,22.09-20.43,22.09H0v-7.11h30.45c10.34,0,15.5-5.25,15.5-15.74s-4.99-15.19-14.98-15.19H0V0h30.02Z"/>
  <g>
    <path class="cls-2" d="m72.76,45.16V3.15h11.04c7.19,0,12.62,1.72,16.29,5.17,3.67,3.45,5.51,8.54,5.51,15.28,0,3.24-.51,6.19-1.54,8.85-1.03,2.66-2.5,4.93-4.44,6.81-1.93,1.89-4.28,3.34-7.03,4.37s-5.86,1.54-9.32,1.54h-10.52Zm3.9-38.44v34.89h6.45c2.89,0,5.47-.39,7.75-1.17,2.27-.78,4.2-1.93,5.79-3.44,1.58-1.51,2.79-3.38,3.62-5.61.83-2.23,1.25-4.79,1.25-7.68,0-11.33-5.99-16.99-17.96-16.99h-6.88Z"/>
    <path class="cls-2" d="m114.01,45.16V3.15h20.48v3.57h-16.58v15.41h15.35v3.52h-15.35v15.97h17.52v3.54h-21.42Z"/>
    <path class="cls-2" d="m148.08,28.81v16.35h-3.9V3.15h10.84c2.21,0,4.16.27,5.86.82,1.7.55,3.13,1.34,4.31,2.37,1.17,1.04,2.06,2.3,2.67,3.81.6,1.5.91,3.22.91,5.16s-.34,3.75-1.03,5.41c-.68,1.65-1.67,3.08-2.94,4.28-1.28,1.2-2.84,2.14-4.67,2.81-1.84.67-3.92,1.01-6.24,1.01h-5.8Zm0-22.09v18.52h5.57c3.61,0,6.36-.84,8.23-2.52,1.88-1.68,2.81-4.05,2.81-7.12,0-5.92-3.46-8.88-10.37-8.88h-6.24Z"/>
    <path class="cls-2" d="m177.29,45.16V3.15h3.9v38.47h16.88v3.54h-20.77Z"/>
    <path class="cls-2" d="m234.09,45.16l-4.63-12.42h-18.02l-4.51,12.42h-4.34l16-42.01h3.93l15.91,42.01h-4.34Zm-12.8-34.66c-.14-.37-.28-.8-.42-1.29-.15-.49-.27-1.04-.37-1.67h-.12c-.12.63-.25,1.18-.4,1.67-.15.49-.29.92-.42,1.29l-6.8,18.69h15.38l-6.86-18.69Z"/>
    <path class="cls-2" d="m267.93,45.16l-6.33-12.04c-.62-1.19-1.23-2.19-1.82-2.99-.59-.8-1.19-1.44-1.82-1.92-.62-.48-1.29-.82-2.01-1.03s-1.51-.31-2.39-.31h-4.63v18.28h-3.9V3.15h12.1c1.58,0,3.11.23,4.58.7s2.79,1.16,3.94,2.08c1.15.92,2.08,2.07,2.77,3.46.69,1.39,1.04,3,1.04,4.83,0,1.48-.22,2.85-.67,4.1-.45,1.25-1.09,2.36-1.92,3.33s-1.84,1.79-3.02,2.46-2.51,1.18-4,1.51v.12c.57.23,1.08.54,1.55.91.47.37.92.82,1.36,1.35s.87,1.13,1.3,1.82c.43.68.88,1.46,1.35,2.34l7.06,13.01h-4.57Zm-18.98-38.44v16.61h6.97c1.41,0,2.7-.21,3.87-.62s2.17-1,3-1.76,1.47-1.68,1.93-2.75c.46-1.07.69-2.29.69-3.63,0-2.44-.79-4.36-2.36-5.76-1.57-1.4-3.84-2.09-6.81-2.09h-7.29Z"/>
    <path class="cls-2" d="m294.44,39.01c.7.53,1.48,1,2.33,1.42.85.42,1.72.77,2.61,1.05.89.28,1.78.5,2.68.64s1.76.22,2.58.22c3.18,0,5.57-.62,7.15-1.85s2.37-3,2.37-5.3c0-1.11-.19-2.08-.56-2.92-.37-.83-.95-1.61-1.73-2.33-.78-.72-1.77-1.44-2.96-2.15-1.19-.71-2.6-1.52-4.22-2.42-1.8-.98-3.33-1.9-4.61-2.77-1.28-.87-2.32-1.76-3.13-2.67s-1.41-1.89-1.79-2.94-.57-2.26-.57-3.6c0-1.7.36-3.22,1.08-4.57s1.7-2.49,2.93-3.44c1.23-.95,2.67-1.67,4.32-2.18,1.65-.51,3.41-.76,5.29-.76,3.3,0,6.06.46,8.29,1.38v4.31c-2.48-1.43-5.39-2.14-8.73-2.14-1.25,0-2.43.15-3.53.45-1.1.3-2.07.75-2.9,1.33s-1.48,1.31-1.96,2.18c-.48.87-.72,1.88-.72,3.03s.16,2.04.48,2.83.84,1.54,1.55,2.24,1.65,1.4,2.81,2.09c1.16.69,2.58,1.49,4.26,2.39,1.76.94,3.29,1.85,4.6,2.74,1.31.89,2.4,1.82,3.27,2.78s1.52,1.99,1.95,3.08.64,2.29.64,3.62c0,1.84-.34,3.45-1.03,4.85-.68,1.4-1.64,2.55-2.87,3.47-1.23.92-2.7,1.61-4.39,2.08s-3.56.7-5.6.7c-.66,0-1.46-.05-2.37-.16-.92-.11-1.85-.26-2.78-.47s-1.83-.45-2.68-.73c-.85-.28-1.54-.59-2.07-.92v-4.57Z"/>
    <path class="cls-2" d="m338.95,6.72v38.44h-3.9V6.72h-12.1v-3.57h28.12v3.57h-12.13Z"/>
    <path class="cls-2" d="m387.67,28.28c0,11.74-5.16,17.61-15.47,17.61s-14.74-5.65-14.74-16.96V3.15h3.9v25.43c0,4.61.93,8.06,2.78,10.34s4.73,3.43,8.61,3.43c7.34,0,11.02-4.45,11.02-13.36V3.15h3.9v25.14Z"/>
    <path class="cls-2" d="m398.04,45.16V3.15h11.04c7.19,0,12.62,1.72,16.29,5.17,3.67,3.45,5.51,8.54,5.51,15.28,0,3.24-.51,6.19-1.54,8.85-1.03,2.66-2.5,4.93-4.44,6.81-1.93,1.89-4.28,3.34-7.03,4.37s-5.86,1.54-9.32,1.54h-10.52Zm3.9-38.44v34.89h6.45c2.89,0,5.47-.39,7.75-1.17,2.28-.78,4.2-1.93,5.79-3.44,1.58-1.51,2.79-3.38,3.62-5.61s1.25-4.79,1.25-7.68c0-11.33-5.99-16.99-17.96-16.99h-6.88Z"/>
    <path class="cls-2" d="m443.18,45.16h-3.9V3.15h3.9v42.01Z"/>
    <path class="cls-2" d="m471.22,45.89c-3.03,0-5.75-.55-8.17-1.66s-4.48-2.61-6.17-4.53c-1.69-1.91-2.99-4.16-3.9-6.75-.91-2.59-1.36-5.37-1.36-8.33,0-3.28.45-6.28,1.36-9.01s2.23-5.06,3.97-7c1.74-1.94,3.87-3.46,6.39-4.54s5.39-1.63,8.61-1.63c2.97,0,5.63.53,8,1.6,2.36,1.06,4.38,2.54,6.04,4.42,1.66,1.89,2.93,4.12,3.82,6.69s1.33,5.38,1.33,8.41c0,3.18-.43,6.14-1.3,8.86s-2.15,5.08-3.84,7.08-3.77,3.56-6.24,4.69-5.32,1.7-8.54,1.7Zm.32-39.9c-2.54,0-4.79.48-6.75,1.45s-3.62,2.28-4.97,3.93c-1.35,1.65-2.37,3.58-3.06,5.8-.69,2.22-1.05,4.58-1.07,7.08-.02,2.38.29,4.66.92,6.84.63,2.18,1.59,4.1,2.87,5.77s2.9,3,4.85,4,4.24,1.49,6.86,1.49,4.92-.45,6.9-1.36,3.64-2.17,4.97-3.78,2.33-3.53,3-5.76,1.01-4.66,1.01-7.29c0-2.46-.3-4.79-.89-7-.6-2.21-1.52-4.14-2.78-5.79-1.26-1.65-2.87-2.96-4.82-3.93s-4.3-1.45-7.03-1.45Z"/>
  </g>
</svg>