<?xml version="1.0" encoding="utf-8"?>
<!-- Generator: Adobe Illustrator 27.5.0, SVG Export Plug-In . SVG Version: 6.00 Build 0)  -->
<svg version="1.1" id="Lager_1" xmlns="http://www.w3.org/2000/svg" xmlns:xlink="http://www.w3.org/1999/xlink" x="0px" y="0px"
	 viewBox="0 0 463 48" style="enable-background:new 0 0 463 48;" xml:space="preserve">
<style type="text/css">
	.st0{fill:#fff;stroke:#fff;stroke-miterlimit:10;background-color:#ffffff;}
	.st1{display:none;fill:none;stroke:#000000;stroke-miterlimit:10;}
	.st2{display:none;}
</style>
<g id="Lager_1_00000022549145724019636730000013561507883625365651_">
	<g>
		<g>
			<path class="st0" d="M56.4,23.8c0,6-1.2,10.5-3.5,13.4c-2.3,3-5,4.8-8.2,5.6c-3.1,0.8-6.8,1.2-10.9,1.2H4v-6.8h29.7
				c6.8,0,11.2-1.1,13.4-3.4s3.2-5.6,3.2-10s-1.1-7.7-3.2-10s-6.6-3.4-13.4-3.4H4V3.6h29.8c6.2,0,10.8,0.7,13.8,2.2
				c3,1.5,5.2,3.7,6.6,6.7C55.7,15.5,56.4,19.3,56.4,23.8z"/>
		</g>
		<g>
			<path class="st0" d="M76.6,9.7h10.9c11.7,0,17.5,5.7,17.5,17C105,38.2,99.1,44,87.5,44H76.6V9.7z"/>
			<path class="st0" d="M81.1,40h6.3c5,0,8.4-1.2,10.2-3.5s2.7-5.6,2.7-9.8c0-4.1-0.9-7.3-2.7-9.5s-5.2-3.4-10.2-3.4h-6.3V40z"/>
			<polygon class="st0" points="136.8,44 111.2,44 111.2,9.7 136,9.7 136,13.8 115.8,13.8 115.8,24.2 134.7,24.2 134.7,28.3 
				115.8,28.3 115.8,40 136.8,40 			"/>
			<path class="st0" d="M143.2,9.7H156c2.8,0,5.2,0.3,7.1,0.8s3.4,1.7,4.5,3.4s1.7,3.7,1.7,5.9c0,3.5-1.1,6.1-3.3,7.9
				s-5.4,2.7-9.6,2.7h-8.6v13.7h-4.6V9.7z"/>
			<path class="st0" d="M147.8,26.2h8.7c2.9,0,5-0.5,6.2-1.6s1.9-2.7,1.9-4.7c0-1.4-0.3-2.6-1-3.7s-1.6-1.7-2.6-2s-2.6-0.4-4.6-0.4
				h-8.6L147.8,26.2L147.8,26.2z"/>
			<polygon class="st0" points="196.5,44 175.2,44 175.2,9.7 179.8,9.7 179.8,40 196.5,40 			"/>
			<polygon class="st0" points="230.2,44 225,44 221,33.6 206.6,33.6 202.9,44 198.1,44 211.2,9.7 216.1,9.7 			"/>
			<polygon class="st0" points="219.7,30 213.7,14 207.9,30 			"/>
			<path class="st0" d="M262.6,44h-4.9l-3.2-9.2c-0.6-1.6-1.5-3-2.9-4s-2.9-1.5-4.6-1.5h-8.4V44H234V9.7h15.2c2.7,0,4.8,0.3,6.5,0.8
				c1.7,0.5,3.1,1.6,4.1,3.3s1.6,3.5,1.6,5.6c0,2.4-0.7,4.4-2.1,6s-3.3,2.6-5.6,3.1v0.1c2.4,0.8,4.2,2.8,5.5,6.2L262.6,44z"/>
			<path class="st0" d="M238.5,25.3h10.1c2.8,0,4.9-0.5,6.1-1.3s1.9-2.4,1.9-4.6c0-3.9-2.4-5.9-7.4-5.9h-10.8V25.3z"/>
			<path class="st0" d="M294.3,44.6c-4.8,0-8.5-1.1-10.9-3.3s-3.7-5-3.8-8.4h4.4c0.2,2.6,1.3,4.5,3.2,5.7s4.2,1.8,6.9,1.8
				c2.5,0,4.6-0.5,6.1-1.6s2.3-2.5,2.3-4.3c0-1.9-0.8-3.3-2.4-4.1s-4.4-1.7-8.3-2.5s-6.8-2-8.5-3.5s-2.6-3.5-2.6-5.9
				c0-2.8,1.1-5.1,3.3-6.8s5.2-2.7,8.9-2.7c3.9,0,7,0.9,9.4,2.7s3.6,4.3,3.8,7.6h-4.4c-0.5-4.2-3.3-6.2-8.5-6.2
				c-2.5,0-4.5,0.5-5.9,1.4s-2.1,2.2-2.1,3.8c0,1.4,0.6,2.5,1.7,3.2s3.2,1.4,6.3,2.1s5.5,1.3,7.3,2s3.3,1.7,4.6,3.1s1.9,3.2,1.9,5.6
				c0,3-1.2,5.4-3.5,7.4S298.1,44.6,294.3,44.6z"/>
			<polygon class="st0" points="337.8,13.8 326.4,13.8 326.4,44 321.9,44 321.9,13.8 310.6,13.8 310.6,9.7 337.8,9.7 			"/>
			<path class="st0" d="M356.2,44.6c-4,0-7-0.8-8.9-2.3s-3.2-3.4-3.8-5.5s-0.8-4.5-0.8-7.3V9.7h4.5v19.8c0,4.5,0.8,7.5,2.3,8.9
				s3.7,2.1,6.7,2.1s5.1-0.7,6.7-2.1s2.3-4.4,2.3-8.9V9.7h4.6v19.9c0,4.2-0.5,7.2-1.5,9.2s-2.5,3.4-4.5,4.4S359.2,44.6,356.2,44.6z"
				/>
			<path class="st0" d="M377.4,9.7h10.9c11.7,0,17.5,5.7,17.5,17c0,11.6-5.8,17.4-17.5,17.4h-10.9V9.7z"/>
			<path class="st0" d="M381.9,40h6.3c5,0,8.4-1.2,10.2-3.5s2.7-5.6,2.7-9.8c0-4.1-0.9-7.3-2.7-9.5s-5.2-3.4-10.2-3.4h-6.3L381.9,40
				L381.9,40z"/>
			<rect x="412.6" y="9.7" class="st0" width="4.6" height="34.4"/>
			<path class="st0" d="M440.2,9.1c4.8,0,8.8,1.6,11.8,4.9s4.6,7.6,4.6,12.9s-1.5,9.6-4.6,12.9s-7,4.9-11.8,4.9
				c-4.8,0-8.8-1.6-11.9-4.9s-4.6-7.5-4.6-12.9c0-5.3,1.5-9.6,4.6-12.9S435.4,9.1,440.2,9.1z"/>
			<path class="st0" d="M440.2,40.7c3.4,0,6.2-1.2,8.5-3.7s3.3-5.8,3.3-10.2s-1.1-7.8-3.3-10.2s-5-3.7-8.4-3.7
				c-3.5,0-6.3,1.2-8.5,3.7s-3.3,5.8-3.3,10.2c0,4.4,1.1,7.8,3.3,10.2S436.8,40.7,440.2,40.7z"/>
			<path class="st1" d="M475.7,44.6c-4.8,0-8.5-1.1-10.9-3.3s-3.7-5-3.8-8.4h4.4c0.2,2.6,1.3,4.5,3.2,5.7s4.2,1.8,6.9,1.8
				c2.5,0,4.6-0.5,6.1-1.6s2.3-2.5,2.3-4.3c0-1.9-0.8-3.3-2.4-4.1s-4.4-1.7-8.3-2.5s-6.8-2-8.5-3.5s-2.6-3.5-2.6-5.9
				c0-2.8,1.1-5.1,3.3-6.8s5.2-2.7,8.9-2.7c3.9,0,7,0.9,9.4,2.7s3.6,4.3,3.8,7.6h-4.4c-0.5-4.2-3.3-6.2-8.5-6.2
				c-2.5,0-4.5,0.5-5.9,1.4s-2.1,2.2-2.1,3.8c0,1.4,0.6,2.5,1.7,3.2s3.2,1.4,6.3,2.1s5.5,1.3,7.3,2s3.3,1.7,4.6,3.1s1.9,3.2,1.9,5.6
				c0,3-1.2,5.4-3.5,7.4S479.5,44.6,475.7,44.6z"/>
		</g>
	</g>
</g>
<g id="Lager_2_00000177461016796395553740000008357965327990884740_" class="st2">
</g>
</svg>
